<?xml version="1.0" encoding="UTF-8"?>
<svg xmlns="http://www.w3.org/2000/svg" width="960" height="540" viewBox="0 0 960 540" role="img" aria-labelledby="title desc">
<title id="title">A 100 MiB file at default settings</title>
<desc id="desc">A 100 MiB file becomes 101 encrypted data chunks in four stripes of 32, 32, 32 and 5 data chunks with 16, 16, 16 and 3 outer parity chunks. One chunk is shown as a group of 32 fragment slots: 16 data fragments, 8 guaranteed parity fragments and 8 extra parity fragments. Three manifest copies are separate groups.</desc>
<rect x="0" y="0" width="960" height="540" fill="#fcfcfb" stroke="#d0d7de"/>
<text x="24" y="30" font-family="sans-serif" font-size="16" fill="#1f2328" text-anchor="start" font-weight="bold">A 100 MiB file at default settings</text>
<text x="24" y="50" font-family="sans-serif" font-size="12" fill="#52514e" text-anchor="start">104,857,600 bytes become 101 data chunks, 4 stripes, 155 groups and 3,720 guaranteed fragments</text>
<text x="24" y="88" font-family="sans-serif" font-size="12" fill="#1f2328" text-anchor="start" font-weight="bold">Data chunks</text>
<text x="24" y="101" font-family="sans-serif" font-size="11" fill="#52514e" text-anchor="start">sequence 0–100</text>
<rect x="150" y="80" width="6.5" height="16" rx="1" fill="#cde2fb" stroke="#2a78d6" stroke-width="0.6"/>
<rect x="157.5" y="80" width="6.5" height="16" rx="1" fill="#cde2fb" stroke="#2a78d6" stroke-width="0.6"/>
<rect x="165" y="80" width="6.5" height="16" rx="1" fill="#cde2fb" stroke="#2a78d6" stroke-width="0.6"/>
<rect x="172.5" y="80" width="6.5" height="16" rx="1" fill="#cde2fb" stroke="#2a78d6" stroke-width="0.6"/>
<rect x="180" y="80" width="6.5" height="16" rx="1" fill="#cde2fb" stroke="#2a78d6" stroke-width="0.6"/>
<rect x="187.5" y="80" width="6.5" height="16" rx="1" fill="#cde2fb" stroke="#2a78d6" stroke-width="0.6"/>
<rect x="195" y="80" width="6.5" height="16" rx="1" fill="#cde2fb" stroke="#2a78d6" stroke-width="0.6"/>
<rect x="202.5" y="80" width="6.5" height="16" rx="1" fill="#cde2fb" stroke="#2a78d6" stroke-width="0.6"/>
<rect x="210" y="80" width="6.5" height="16" rx="1" fill="#cde2fb" stroke="#2a78d6" stroke-width="0.6"/>
<rect x="217.5" y="80" width="6.5" height="16" rx="1" fill="#cde2fb" stroke="#2a78d6" stroke-width="0.6"/>
<rect x="225" y="80" width="6.5" height="16" rx="1" fill="#cde2fb" stroke="#2a78d6" stroke-width="0.6"/>
<rect x="232.5" y="80" width="6.5" height="16" rx="1" fill="#cde2fb" stroke="#2a78d6" stroke-width="0.6"/>
<rect x="240" y="80" width="6.5" height="16" rx="1" fill="#cde2fb" stroke="#2a78d6" stroke-width="0.6"/>
<rect x="247.5" y="80" width="6.5" height="16" rx="1" fill="#cde2fb" stroke="#2a78d6" stroke-width="0.6"/>
<rect x="255" y="80" width="6.5" height="16" rx="1" fill="#cde2fb" stroke="#2a78d6" stroke-width="0.6"/>
<rect x="262.5" y="80" width="6.5" height="16" rx="1" fill="#cde2fb" stroke="#2a78d6" stroke-width="0.6"/>
<rect x="270" y="80" width="6.5" height="16" rx="1" fill="#cde2fb" stroke="#2a78d6" stroke-width="0.6"/>
<rect x="277.5" y="80" width="6.5" height="16" rx="1" fill="#cde2fb" stroke="#2a78d6" stroke-width="0.6"/>
<rect x="285" y="80" width="6.5" height="16" rx="1" fill="#cde2fb" stroke="#2a78d6" stroke-width="0.6"/>
<rect x="292.5" y="80" width="6.5" height="16" rx="1" fill="#cde2fb" stroke="#2a78d6" stroke-width="0.6"/>
<rect x="300" y="80" width="6.5" height="16" rx="1" fill="#cde2fb" stroke="#2a78d6" stroke-width="0.6"/>
<rect x="307.5" y="80" width="6.5" height="16" rx="1" fill="#cde2fb" stroke="#2a78d6" stroke-width="0.6"/>
<rect x="315" y="80" width="6.5" height="16" rx="1" fill="#cde2fb" stroke="#2a78d6" stroke-width="0.6"/>
<rect x="322.5" y="80" width="6.5" height="16" rx="1" fill="#cde2fb" stroke="#2a78d6" stroke-width="0.6"/>
<rect x="330" y="80" width="6.5" height="16" rx="1" fill="#cde2fb" stroke="#2a78d6" stroke-width="0.6"/>
<rect x="337.5" y="80" width="6.5" height="16" rx="1" fill="#cde2fb" stroke="#2a78d6" stroke-width="0.6"/>
<rect x="345" y="80" width="6.5" height="16" rx="1" fill="#cde2fb" stroke="#2a78d6" stroke-width="0.6"/>
<rect x="352.5" y="80" width="6.5" height="16" rx="1" fill="#cde2fb" stroke="#2a78d6" stroke-width="0.6"/>
<rect x="360" y="80" width="6.5" height="16" rx="1" fill="#cde2fb" stroke="#2a78d6" stroke-width="0.6"/>
<rect x="367.5" y="80" width="6.5" height="16" rx="1" fill="#cde2fb" stroke="#2a78d6" stroke-width="0.6"/>
<rect x="375" y="80" width="6.5" height="16" rx="1" fill="#cde2fb" stroke="#2a78d6" stroke-width="0.6"/>
<rect x="382.5" y="80" width="6.5" height="16" rx="1" fill="#cde2fb" stroke="#2a78d6" stroke-width="0.6"/>
<rect x="390" y="80" width="6.5" height="16" rx="1" fill="#cde2fb" stroke="#2a78d6" stroke-width="0.6"/>
<rect x="397.5" y="80" width="6.5" height="16" rx="1" fill="#cde2fb" stroke="#2a78d6" stroke-width="0.6"/>
<rect x="405" y="80" width="6.5" height="16" rx="1" fill="#cde2fb" stroke="#2a78d6" stroke-width="0.6"/>
<rect x="412.5" y="80" width="6.5" height="16" rx="1" fill="#cde2fb" stroke="#2a78d6" stroke-width="0.6"/>
<rect x="420" y="80" width="6.5" height="16" rx="1" fill="#cde2fb" stroke="#2a78d6" stroke-width="0.6"/>
<rect x="427.5" y="80" width="6.5" height="16" rx="1" fill="#cde2fb" stroke="#2a78d6" stroke-width="0.6"/>
<rect x="435" y="80" width="6.5" height="16" rx="1" fill="#cde2fb" stroke="#2a78d6" stroke-width="0.6"/>
<rect x="442.5" y="80" width="6.5" height="16" rx="1" fill="#cde2fb" stroke="#2a78d6" stroke-width="0.6"/>
<rect x="450" y="80" width="6.5" height="16" rx="1" fill="#cde2fb" stroke="#2a78d6" stroke-width="0.6"/>
<rect x="457.5" y="80" width="6.5" height="16" rx="1" fill="#cde2fb" stroke="#2a78d6" stroke-width="0.6"/>
<rect x="465" y="80" width="6.5" height="16" rx="1" fill="#cde2fb" stroke="#2a78d6" stroke-width="0.6"/>
<rect x="472.5" y="80" width="6.5" height="16" rx="1" fill="#cde2fb" stroke="#2a78d6" stroke-width="0.6"/>
<rect x="480" y="80" width="6.5" height="16" rx="1" fill="#cde2fb" stroke="#2a78d6" stroke-width="0.6"/>
<rect x="487.5" y="80" width="6.5" height="16" rx="1" fill="#cde2fb" stroke="#2a78d6" stroke-width="0.6"/>
<rect x="495" y="80" width="6.5" height="16" rx="1" fill="#cde2fb" stroke="#2a78d6" stroke-width="0.6"/>
<rect x="502.5" y="80" width="6.5" height="16" rx="1" fill="#cde2fb" stroke="#2a78d6" stroke-width="0.6"/>
<rect x="510" y="80" width="6.5" height="16" rx="1" fill="#cde2fb" stroke="#2a78d6" stroke-width="0.6"/>
<rect x="517.5" y="80" width="6.5" height="16" rx="1" fill="#cde2fb" stroke="#2a78d6" stroke-width="0.6"/>
<rect x="525" y="80" width="6.5" height="16" rx="1" fill="#cde2fb" stroke="#2a78d6" stroke-width="0.6"/>
<rect x="532.5" y="80" width="6.5" height="16" rx="1" fill="#cde2fb" stroke="#2a78d6" stroke-width="0.6"/>
<rect x="540" y="80" width="6.5" height="16" rx="1" fill="#cde2fb" stroke="#2a78d6" stroke-width="0.6"/>
<rect x="547.5" y="80" width="6.5" height="16" rx="1" fill="#cde2fb" stroke="#2a78d6" stroke-width="0.6"/>
<rect x="555" y="80" width="6.5" height="16" rx="1" fill="#cde2fb" stroke="#2a78d6" stroke-width="0.6"/>
<rect x="562.5" y="80" width="6.5" height="16" rx="1" fill="#cde2fb" stroke="#2a78d6" stroke-width="0.6"/>
<rect x="570" y="80" width="6.5" height="16" rx="1" fill="#cde2fb" stroke="#2a78d6" stroke-width="0.6"/>
<rect x="577.5" y="80" width="6.5" height="16" rx="1" fill="#cde2fb" stroke="#2a78d6" stroke-width="0.6"/>
<rect x="585" y="80" width="6.5" height="16" rx="1" fill="#cde2fb" stroke="#2a78d6" stroke-width="0.6"/>
<rect x="592.5" y="80" width="6.5" height="16" rx="1" fill="#cde2fb" stroke="#2a78d6" stroke-width="0.6"/>
<rect x="600" y="80" width="6.5" height="16" rx="1" fill="#cde2fb" stroke="#2a78d6" stroke-width="0.6"/>
<rect x="607.5" y="80" width="6.5" height="16" rx="1" fill="#cde2fb" stroke="#2a78d6" stroke-width="0.6"/>
<rect x="615" y="80" width="6.5" height="16" rx="1" fill="#cde2fb" stroke="#2a78d6" stroke-width="0.6"/>
<rect x="622.5" y="80" width="6.5" height="16" rx="1" fill="#cde2fb" stroke="#2a78d6" stroke-width="0.6"/>
<rect x="630" y="80" width="6.5" height="16" rx="1" fill="#cde2fb" stroke="#2a78d6" stroke-width="0.6"/>
<rect x="637.5" y="80" width="6.5" height="16" rx="1" fill="#cde2fb" stroke="#2a78d6" stroke-width="0.6"/>
<rect x="645" y="80" width="6.5" height="16" rx="1" fill="#cde2fb" stroke="#2a78d6" stroke-width="0.6"/>
<rect x="652.5" y="80" width="6.5" height="16" rx="1" fill="#cde2fb" stroke="#2a78d6" stroke-width="0.6"/>
<rect x="660" y="80" width="6.5" height="16" rx="1" fill="#cde2fb" stroke="#2a78d6" stroke-width="0.6"/>
<rect x="667.5" y="80" width="6.5" height="16" rx="1" fill="#cde2fb" stroke="#2a78d6" stroke-width="0.6"/>
<rect x="675" y="80" width="6.5" height="16" rx="1" fill="#cde2fb" stroke="#2a78d6" stroke-width="0.6"/>
<rect x="682.5" y="80" width="6.5" height="16" rx="1" fill="#cde2fb" stroke="#2a78d6" stroke-width="0.6"/>
<rect x="690" y="80" width="6.5" height="16" rx="1" fill="#cde2fb" stroke="#2a78d6" stroke-width="0.6"/>
<rect x="697.5" y="80" width="6.5" height="16" rx="1" fill="#cde2fb" stroke="#2a78d6" stroke-width="0.6"/>
<rect x="705" y="80" width="6.5" height="16" rx="1" fill="#cde2fb" stroke="#2a78d6" stroke-width="0.6"/>
<rect x="712.5" y="80" width="6.5" height="16" rx="1" fill="#cde2fb" stroke="#2a78d6" stroke-width="0.6"/>
<rect x="720" y="80" width="6.5" height="16" rx="1" fill="#cde2fb" stroke="#2a78d6" stroke-width="0.6"/>
<rect x="727.5" y="80" width="6.5" height="16" rx="1" fill="#cde2fb" stroke="#2a78d6" stroke-width="0.6"/>
<rect x="735" y="80" width="6.5" height="16" rx="1" fill="#cde2fb" stroke="#2a78d6" stroke-width="0.6"/>
<rect x="742.5" y="80" width="6.5" height="16" rx="1" fill="#cde2fb" stroke="#2a78d6" stroke-width="0.6"/>
<rect x="750" y="80" width="6.5" height="16" rx="1" fill="#cde2fb" stroke="#2a78d6" stroke-width="0.6"/>
<rect x="757.5" y="80" width="6.5" height="16" rx="1" fill="#cde2fb" stroke="#2a78d6" stroke-width="0.6"/>
<rect x="765" y="80" width="6.5" height="16" rx="1" fill="#cde2fb" stroke="#2a78d6" stroke-width="0.6"/>
<rect x="772.5" y="80" width="6.5" height="16" rx="1" fill="#cde2fb" stroke="#2a78d6" stroke-width="0.6"/>
<rect x="780" y="80" width="6.5" height="16" rx="1" fill="#cde2fb" stroke="#2a78d6" stroke-width="0.6"/>
<rect x="787.5" y="80" width="6.5" height="16" rx="1" fill="#cde2fb" stroke="#2a78d6" stroke-width="0.6"/>
<rect x="795" y="80" width="6.5" height="16" rx="1" fill="#cde2fb" stroke="#2a78d6" stroke-width="0.6"/>
<rect x="802.5" y="80" width="6.5" height="16" rx="1" fill="#cde2fb" stroke="#2a78d6" stroke-width="0.6"/>
<rect x="810" y="80" width="6.5" height="16" rx="1" fill="#cde2fb" stroke="#2a78d6" stroke-width="0.6"/>
<rect x="817.5" y="80" width="6.5" height="16" rx="1" fill="#cde2fb" stroke="#2a78d6" stroke-width="0.6"/>
<rect x="825" y="80" width="6.5" height="16" rx="1" fill="#cde2fb" stroke="#2a78d6" stroke-width="0.6"/>
<rect x="832.5" y="80" width="6.5" height="16" rx="1" fill="#cde2fb" stroke="#2a78d6" stroke-width="0.6"/>
<rect x="840" y="80" width="6.5" height="16" rx="1" fill="#cde2fb" stroke="#2a78d6" stroke-width="0.6"/>
<rect x="847.5" y="80" width="6.5" height="16" rx="1" fill="#cde2fb" stroke="#2a78d6" stroke-width="0.6"/>
<rect x="855" y="80" width="6.5" height="16" rx="1" fill="#cde2fb" stroke="#2a78d6" stroke-width="0.6"/>
<rect x="862.5" y="80" width="6.5" height="16" rx="1" fill="#cde2fb" stroke="#2a78d6" stroke-width="0.6"/>
<rect x="870" y="80" width="6.5" height="16" rx="1" fill="#cde2fb" stroke="#2a78d6" stroke-width="0.6"/>
<rect x="877.5" y="80" width="6.5" height="16" rx="1" fill="#cde2fb" stroke="#2a78d6" stroke-width="0.6"/>
<rect x="885" y="80" width="6.5" height="16" rx="1" fill="#cde2fb" stroke="#2a78d6" stroke-width="0.6"/>
<rect x="892.5" y="80" width="6.5" height="16" rx="1" fill="#cde2fb" stroke="#2a78d6" stroke-width="0.6"/>
<rect x="900" y="80" width="6.5" height="16" rx="1" fill="#cde2fb" stroke="#2a78d6" stroke-width="0.6"/>
<line x1="150" y1="104" x2="150" y2="99" stroke="#7a7974" stroke-width="1"/>
<line x1="389" y1="104" x2="389" y2="99" stroke="#7a7974" stroke-width="1"/>
<line x1="150" y1="104" x2="389" y2="104" stroke="#7a7974" stroke-width="1"/>
<text x="269.5" y="118" font-family="sans-serif" font-size="10" fill="#52514e" text-anchor="middle">stripe 0: 0–31</text>
<line x1="390" y1="104" x2="390" y2="99" stroke="#7a7974" stroke-width="1"/>
<line x1="629" y1="104" x2="629" y2="99" stroke="#7a7974" stroke-width="1"/>
<line x1="390" y1="104" x2="629" y2="104" stroke="#7a7974" stroke-width="1"/>
<text x="509.5" y="118" font-family="sans-serif" font-size="10" fill="#52514e" text-anchor="middle">stripe 1: 32–63</text>
<line x1="630" y1="104" x2="630" y2="99" stroke="#7a7974" stroke-width="1"/>
<line x1="869" y1="104" x2="869" y2="99" stroke="#7a7974" stroke-width="1"/>
<line x1="630" y1="104" x2="869" y2="104" stroke="#7a7974" stroke-width="1"/>
<text x="749.5" y="118" font-family="sans-serif" font-size="10" fill="#52514e" text-anchor="middle">stripe 2: 64–95</text>
<line x1="870" y1="104" x2="870" y2="99" stroke="#7a7974" stroke-width="1"/>
<line x1="906.5" y1="104" x2="906.5" y2="99" stroke="#7a7974" stroke-width="1"/>
<line x1="870" y1="104" x2="906.5" y2="104" stroke="#7a7974" stroke-width="1"/>
<text x="888.25" y="118" font-family="sans-serif" font-size="10" fill="#52514e" text-anchor="middle"></text>
<text x="936" y="118" font-family="sans-serif" font-size="10" fill="#52514e" text-anchor="end">stripe 3: 96–100</text>
<text x="150" y="140" font-family="sans-serif" font-size="11" fill="#52514e" text-anchor="start">Each 1,048,560-byte piece (chunkSize − 16) is sealed with AES-256-GCM into a 1 MiB chunk; the last holds 1,600 bytes plus padding.</text>
<text x="450" y="170" font-family="sans-serif" font-size="11" fill="#52514e" text-anchor="middle">data chunks, index 0–31</text>
<text x="810" y="170" font-family="sans-serif" font-size="11" fill="#52514e" text-anchor="middle">outer parity, index 32–47</text>
<text x="24" y="187" font-family="sans-serif" font-size="12" fill="#1f2328" text-anchor="start" font-weight="bold">Stripe 0</text>
<text x="24" y="200" font-family="sans-serif" font-size="11" fill="#52514e" text-anchor="start">32 data + 16 parity</text>
<rect x="210" y="178" width="13" height="18" rx="2" fill="#cde2fb" stroke="#2a78d6" stroke-width="1"/>
<rect x="225" y="178" width="13" height="18" rx="2" fill="#cde2fb" stroke="#2a78d6" stroke-width="1"/>
<rect x="240" y="178" width="13" height="18" rx="2" fill="#cde2fb" stroke="#2a78d6" stroke-width="1"/>
<rect x="255" y="178" width="13" height="18" rx="2" fill="#cde2fb" stroke="#2a78d6" stroke-width="1"/>
<rect x="270" y="178" width="13" height="18" rx="2" fill="#cde2fb" stroke="#2a78d6" stroke-width="1"/>
<rect x="285" y="178" width="13" height="18" rx="2" fill="#cde2fb" stroke="#2a78d6" stroke-width="1"/>
<rect x="300" y="178" width="13" height="18" rx="2" fill="#cde2fb" stroke="#2a78d6" stroke-width="1"/>
<rect x="315" y="178" width="13" height="18" rx="2" fill="#cde2fb" stroke="#2a78d6" stroke-width="1"/>
<rect x="330" y="178" width="13" height="18" rx="2" fill="#cde2fb" stroke="#2a78d6" stroke-width="1"/>
<rect x="345" y="178" width="13" height="18" rx="2" fill="#cde2fb" stroke="#2a78d6" stroke-width="1"/>
<rect x="360" y="178" width="13" height="18" rx="2" fill="#cde2fb" stroke="#2a78d6" stroke-width="1"/>
<rect x="375" y="178" width="13" height="18" rx="2" fill="#cde2fb" stroke="#2a78d6" stroke-width="1"/>
<rect x="390" y="178" width="13" height="18" rx="2" fill="#cde2fb" stroke="#2a78d6" stroke-width="1"/>
<rect x="405" y="178" width="13" height="18" rx="2" fill="#cde2fb" stroke="#2a78d6" stroke-width="1"/>
<rect x="420" y="178" width="13" height="18" rx="2" fill="#cde2fb" stroke="#2a78d6" stroke-width="1"/>
<rect x="435" y="178" width="13" height="18" rx="2" fill="#cde2fb" stroke="#2a78d6" stroke-width="1"/>
<rect x="450" y="178" width="13" height="18" rx="2" fill="#cde2fb" stroke="#2a78d6" stroke-width="1"/>
<rect x="465" y="178" width="13" height="18" rx="2" fill="#cde2fb" stroke="#2a78d6" stroke-width="1"/>
<rect x="480" y="178" width="13" height="18" rx="2" fill="#cde2fb" stroke="#2a78d6" stroke-width="1"/>
<rect x="495" y="178" width="13" height="18" rx="2" fill="#cde2fb" stroke="#2a78d6" stroke-width="1"/>
<rect x="510" y="178" width="13" height="18" rx="2" fill="#cde2fb" stroke="#2a78d6" stroke-width="1"/>
<rect x="525" y="178" width="13" height="18" rx="2" fill="#cde2fb" stroke="#2a78d6" stroke-width="1"/>
<rect x="540" y="178" width="13" height="18" rx="2" fill="#cde2fb" stroke="#2a78d6" stroke-width="1"/>
<rect x="555" y="178" width="13" height="18" rx="2" fill="#cde2fb" stroke="#2a78d6" stroke-width="1"/>
<rect x="570" y="178" width="13" height="18" rx="2" fill="#cde2fb" stroke="#2a78d6" stroke-width="1"/>
<rect x="585" y="178" width="13" height="18" rx="2" fill="#cde2fb" stroke="#2a78d6" stroke-width="1"/>
<rect x="600" y="178" width="13" height="18" rx="2" fill="#cde2fb" stroke="#2a78d6" stroke-width="1"/>
<rect x="615" y="178" width="13" height="18" rx="2" fill="#cde2fb" stroke="#2a78d6" stroke-width="1"/>
<rect x="630" y="178" width="13" height="18" rx="2" fill="#cde2fb" stroke="#2a78d6" stroke-width="1"/>
<rect x="645" y="178" width="13" height="18" rx="2" fill="#cde2fb" stroke="#2a78d6" stroke-width="1"/>
<rect x="660" y="178" width="13" height="18" rx="2" fill="#cde2fb" stroke="#2a78d6" stroke-width="1"/>
<rect x="675" y="178" width="13" height="18" rx="2" fill="#cde2fb" stroke="#2a78d6" stroke-width="1"/>
<rect x="690" y="178" width="13" height="18" rx="2" fill="#dcd8f0" stroke="#4a3aa7" stroke-width="1"/>
<rect x="705" y="178" width="13" height="18" rx="2" fill="#dcd8f0" stroke="#4a3aa7" stroke-width="1"/>
<rect x="720" y="178" width="13" height="18" rx="2" fill="#dcd8f0" stroke="#4a3aa7" stroke-width="1"/>
<rect x="735" y="178" width="13" height="18" rx="2" fill="#dcd8f0" stroke="#4a3aa7" stroke-width="1"/>
<rect x="750" y="178" width="13" height="18" rx="2" fill="#dcd8f0" stroke="#4a3aa7" stroke-width="1"/>
<rect x="765" y="178" width="13" height="18" rx="2" fill="#dcd8f0" stroke="#4a3aa7" stroke-width="1"/>
<rect x="780" y="178" width="13" height="18" rx="2" fill="#dcd8f0" stroke="#4a3aa7" stroke-width="1"/>
<rect x="795" y="178" width="13" height="18" rx="2" fill="#dcd8f0" stroke="#4a3aa7" stroke-width="1"/>
<rect x="810" y="178" width="13" height="18" rx="2" fill="#dcd8f0" stroke="#4a3aa7" stroke-width="1"/>
<rect x="825" y="178" width="13" height="18" rx="2" fill="#dcd8f0" stroke="#4a3aa7" stroke-width="1"/>
<rect x="840" y="178" width="13" height="18" rx="2" fill="#dcd8f0" stroke="#4a3aa7" stroke-width="1"/>
<rect x="855" y="178" width="13" height="18" rx="2" fill="#dcd8f0" stroke="#4a3aa7" stroke-width="1"/>
<rect x="870" y="178" width="13" height="18" rx="2" fill="#dcd8f0" stroke="#4a3aa7" stroke-width="1"/>
<rect x="885" y="178" width="13" height="18" rx="2" fill="#dcd8f0" stroke="#4a3aa7" stroke-width="1"/>
<rect x="900" y="178" width="13" height="18" rx="2" fill="#dcd8f0" stroke="#4a3aa7" stroke-width="1"/>
<rect x="915" y="178" width="13" height="18" rx="2" fill="#dcd8f0" stroke="#4a3aa7" stroke-width="1"/>
<text x="24" y="221" font-family="sans-serif" font-size="12" fill="#1f2328" text-anchor="start" font-weight="bold">Stripe 1</text>
<text x="24" y="234" font-family="sans-serif" font-size="11" fill="#52514e" text-anchor="start">32 data + 16 parity</text>
<rect x="210" y="212" width="13" height="18" rx="2" fill="#cde2fb" stroke="#2a78d6" stroke-width="1"/>
<rect x="225" y="212" width="13" height="18" rx="2" fill="#cde2fb" stroke="#2a78d6" stroke-width="1"/>
<rect x="240" y="212" width="13" height="18" rx="2" fill="#cde2fb" stroke="#2a78d6" stroke-width="1"/>
<rect x="255" y="212" width="13" height="18" rx="2" fill="#cde2fb" stroke="#2a78d6" stroke-width="1"/>
<rect x="270" y="212" width="13" height="18" rx="2" fill="#cde2fb" stroke="#2a78d6" stroke-width="1"/>
<rect x="285" y="212" width="13" height="18" rx="2" fill="#cde2fb" stroke="#2a78d6" stroke-width="1"/>
<rect x="300" y="212" width="13" height="18" rx="2" fill="#cde2fb" stroke="#2a78d6" stroke-width="1"/>
<rect x="315" y="212" width="13" height="18" rx="2" fill="#cde2fb" stroke="#2a78d6" stroke-width="1"/>
<rect x="330" y="212" width="13" height="18" rx="2" fill="#cde2fb" stroke="#2a78d6" stroke-width="1"/>
<rect x="345" y="212" width="13" height="18" rx="2" fill="#cde2fb" stroke="#2a78d6" stroke-width="1"/>
<rect x="360" y="212" width="13" height="18" rx="2" fill="#cde2fb" stroke="#2a78d6" stroke-width="1"/>
<rect x="375" y="212" width="13" height="18" rx="2" fill="#cde2fb" stroke="#2a78d6" stroke-width="1"/>
<rect x="390" y="212" width="13" height="18" rx="2" fill="#cde2fb" stroke="#2a78d6" stroke-width="1"/>
<rect x="405" y="212" width="13" height="18" rx="2" fill="#cde2fb" stroke="#2a78d6" stroke-width="1"/>
<rect x="420" y="212" width="13" height="18" rx="2" fill="#cde2fb" stroke="#2a78d6" stroke-width="1"/>
<rect x="435" y="212" width="13" height="18" rx="2" fill="#cde2fb" stroke="#2a78d6" stroke-width="1"/>
<rect x="450" y="212" width="13" height="18" rx="2" fill="#cde2fb" stroke="#2a78d6" stroke-width="1"/>
<rect x="465" y="212" width="13" height="18" rx="2" fill="#cde2fb" stroke="#2a78d6" stroke-width="1"/>
<rect x="480" y="212" width="13" height="18" rx="2" fill="#cde2fb" stroke="#2a78d6" stroke-width="1"/>
<rect x="495" y="212" width="13" height="18" rx="2" fill="#cde2fb" stroke="#2a78d6" stroke-width="1"/>
<rect x="510" y="212" width="13" height="18" rx="2" fill="#cde2fb" stroke="#2a78d6" stroke-width="1"/>
<rect x="525" y="212" width="13" height="18" rx="2" fill="#cde2fb" stroke="#2a78d6" stroke-width="1"/>
<rect x="540" y="212" width="13" height="18" rx="2" fill="#cde2fb" stroke="#2a78d6" stroke-width="1"/>
<rect x="555" y="212" width="13" height="18" rx="2" fill="#cde2fb" stroke="#2a78d6" stroke-width="1"/>
<rect x="570" y="212" width="13" height="18" rx="2" fill="#cde2fb" stroke="#2a78d6" stroke-width="1"/>
<rect x="585" y="212" width="13" height="18" rx="2" fill="#cde2fb" stroke="#2a78d6" stroke-width="1"/>
<rect x="600" y="212" width="13" height="18" rx="2" fill="#cde2fb" stroke="#2a78d6" stroke-width="1"/>
<rect x="615" y="212" width="13" height="18" rx="2" fill="#cde2fb" stroke="#2a78d6" stroke-width="1"/>
<rect x="630" y="212" width="13" height="18" rx="2" fill="#cde2fb" stroke="#2a78d6" stroke-width="1"/>
<rect x="645" y="212" width="13" height="18" rx="2" fill="#cde2fb" stroke="#2a78d6" stroke-width="1"/>
<rect x="660" y="212" width="13" height="18" rx="2" fill="#cde2fb" stroke="#2a78d6" stroke-width="1"/>
<rect x="675" y="212" width="13" height="18" rx="2" fill="#cde2fb" stroke="#2a78d6" stroke-width="1"/>
<rect x="690" y="212" width="13" height="18" rx="2" fill="#dcd8f0" stroke="#4a3aa7" stroke-width="1"/>
<rect x="705" y="212" width="13" height="18" rx="2" fill="#dcd8f0" stroke="#4a3aa7" stroke-width="1"/>
<rect x="720" y="212" width="13" height="18" rx="2" fill="#dcd8f0" stroke="#4a3aa7" stroke-width="1"/>
<rect x="735" y="212" width="13" height="18" rx="2" fill="#dcd8f0" stroke="#4a3aa7" stroke-width="1"/>
<rect x="750" y="212" width="13" height="18" rx="2" fill="#dcd8f0" stroke="#4a3aa7" stroke-width="1"/>
<rect x="765" y="212" width="13" height="18" rx="2" fill="#dcd8f0" stroke="#4a3aa7" stroke-width="1"/>
<rect x="780" y="212" width="13" height="18" rx="2" fill="#dcd8f0" stroke="#4a3aa7" stroke-width="1"/>
<rect x="795" y="212" width="13" height="18" rx="2" fill="#dcd8f0" stroke="#4a3aa7" stroke-width="1"/>
<rect x="810" y="212" width="13" height="18" rx="2" fill="#dcd8f0" stroke="#4a3aa7" stroke-width="1"/>
<rect x="825" y="212" width="13" height="18" rx="2" fill="#dcd8f0" stroke="#4a3aa7" stroke-width="1"/>
<rect x="840" y="212" width="13" height="18" rx="2" fill="#dcd8f0" stroke="#4a3aa7" stroke-width="1"/>
<rect x="855" y="212" width="13" height="18" rx="2" fill="#dcd8f0" stroke="#4a3aa7" stroke-width="1"/>
<rect x="870" y="212" width="13" height="18" rx="2" fill="#dcd8f0" stroke="#4a3aa7" stroke-width="1"/>
<rect x="885" y="212" width="13" height="18" rx="2" fill="#dcd8f0" stroke="#4a3aa7" stroke-width="1"/>
<rect x="900" y="212" width="13" height="18" rx="2" fill="#dcd8f0" stroke="#4a3aa7" stroke-width="1"/>
<rect x="915" y="212" width="13" height="18" rx="2" fill="#dcd8f0" stroke="#4a3aa7" stroke-width="1"/>
<text x="24" y="255" font-family="sans-serif" font-size="12" fill="#1f2328" text-anchor="start" font-weight="bold">Stripe 2</text>
<text x="24" y="268" font-family="sans-serif" font-size="11" fill="#52514e" text-anchor="start">32 data + 16 parity</text>
<rect x="210" y="246" width="13" height="18" rx="2" fill="#cde2fb" stroke="#2a78d6" stroke-width="1"/>
<rect x="225" y="246" width="13" height="18" rx="2" fill="#cde2fb" stroke="#2a78d6" stroke-width="1"/>
<rect x="240" y="246" width="13" height="18" rx="2" fill="#cde2fb" stroke="#2a78d6" stroke-width="1"/>
<rect x="255" y="246" width="13" height="18" rx="2" fill="#cde2fb" stroke="#2a78d6" stroke-width="1"/>
<rect x="270" y="246" width="13" height="18" rx="2" fill="#cde2fb" stroke="#2a78d6" stroke-width="1"/>
<rect x="285" y="246" width="13" height="18" rx="2" fill="#cde2fb" stroke="#2a78d6" stroke-width="1"/>
<rect x="300" y="246" width="13" height="18" rx="2" fill="#cde2fb" stroke="#2a78d6" stroke-width="1"/>
<rect x="315" y="246" width="13" height="18" rx="2" fill="#cde2fb" stroke="#2a78d6" stroke-width="1"/>
<rect x="330" y="246" width="13" height="18" rx="2" fill="#cde2fb" stroke="#2a78d6" stroke-width="1"/>
<rect x="345" y="246" width="13" height="18" rx="2" fill="#cde2fb" stroke="#2a78d6" stroke-width="1"/>
<rect x="360" y="246" width="13" height="18" rx="2" fill="#cde2fb" stroke="#2a78d6" stroke-width="1"/>
<rect x="375" y="246" width="13" height="18" rx="2" fill="#cde2fb" stroke="#2a78d6" stroke-width="1"/>
<rect x="390" y="246" width="13" height="18" rx="2" fill="#cde2fb" stroke="#2a78d6" stroke-width="1"/>
<rect x="405" y="246" width="13" height="18" rx="2" fill="#cde2fb" stroke="#2a78d6" stroke-width="1"/>
<rect x="420" y="246" width="13" height="18" rx="2" fill="#cde2fb" stroke="#2a78d6" stroke-width="1"/>
<rect x="435" y="246" width="13" height="18" rx="2" fill="#cde2fb" stroke="#2a78d6" stroke-width="1"/>
<rect x="450" y="246" width="13" height="18" rx="2" fill="#cde2fb" stroke="#2a78d6" stroke-width="1"/>
<rect x="465" y="246" width="13" height="18" rx="2" fill="#cde2fb" stroke="#2a78d6" stroke-width="1"/>
<rect x="480" y="246" width="13" height="18" rx="2" fill="#cde2fb" stroke="#2a78d6" stroke-width="1"/>
<rect x="495" y="246" width="13" height="18" rx="2" fill="#cde2fb" stroke="#2a78d6" stroke-width="1"/>
<rect x="510" y="246" width="13" height="18" rx="2" fill="#cde2fb" stroke="#2a78d6" stroke-width="1"/>
<rect x="525" y="246" width="13" height="18" rx="2" fill="#cde2fb" stroke="#2a78d6" stroke-width="1"/>
<rect x="540" y="246" width="13" height="18" rx="2" fill="#cde2fb" stroke="#2a78d6" stroke-width="1"/>
<rect x="555" y="246" width="13" height="18" rx="2" fill="#cde2fb" stroke="#2a78d6" stroke-width="1"/>
<rect x="570" y="246" width="13" height="18" rx="2" fill="#cde2fb" stroke="#2a78d6" stroke-width="1"/>
<rect x="585" y="246" width="13" height="18" rx="2" fill="#cde2fb" stroke="#2a78d6" stroke-width="1"/>
<rect x="600" y="246" width="13" height="18" rx="2" fill="#cde2fb" stroke="#2a78d6" stroke-width="1"/>
<rect x="615" y="246" width="13" height="18" rx="2" fill="#cde2fb" stroke="#2a78d6" stroke-width="1"/>
<rect x="630" y="246" width="13" height="18" rx="2" fill="#cde2fb" stroke="#2a78d6" stroke-width="1"/>
<rect x="645" y="246" width="13" height="18" rx="2" fill="#cde2fb" stroke="#2a78d6" stroke-width="1"/>
<rect x="660" y="246" width="13" height="18" rx="2" fill="#cde2fb" stroke="#2a78d6" stroke-width="1"/>
<rect x="675" y="246" width="13" height="18" rx="2" fill="#cde2fb" stroke="#2a78d6" stroke-width="1"/>
<rect x="690" y="246" width="13" height="18" rx="2" fill="#dcd8f0" stroke="#4a3aa7" stroke-width="1"/>
<rect x="705" y="246" width="13" height="18" rx="2" fill="#dcd8f0" stroke="#4a3aa7" stroke-width="1"/>
<rect x="720" y="246" width="13" height="18" rx="2" fill="#dcd8f0" stroke="#4a3aa7" stroke-width="1"/>
<rect x="735" y="246" width="13" height="18" rx="2" fill="#dcd8f0" stroke="#4a3aa7" stroke-width="1"/>
<rect x="750" y="246" width="13" height="18" rx="2" fill="#dcd8f0" stroke="#4a3aa7" stroke-width="1"/>
<rect x="765" y="246" width="13" height="18" rx="2" fill="#dcd8f0" stroke="#4a3aa7" stroke-width="1"/>
<rect x="780" y="246" width="13" height="18" rx="2" fill="#dcd8f0" stroke="#4a3aa7" stroke-width="1"/>
<rect x="795" y="246" width="13" height="18" rx="2" fill="#dcd8f0" stroke="#4a3aa7" stroke-width="1"/>
<rect x="810" y="246" width="13" height="18" rx="2" fill="#dcd8f0" stroke="#4a3aa7" stroke-width="1"/>
<rect x="825" y="246" width="13" height="18" rx="2" fill="#dcd8f0" stroke="#4a3aa7" stroke-width="1"/>
<rect x="840" y="246" width="13" height="18" rx="2" fill="#dcd8f0" stroke="#4a3aa7" stroke-width="1"/>
<rect x="855" y="246" width="13" height="18" rx="2" fill="#dcd8f0" stroke="#4a3aa7" stroke-width="1"/>
<rect x="870" y="246" width="13" height="18" rx="2" fill="#dcd8f0" stroke="#4a3aa7" stroke-width="1"/>
<rect x="885" y="246" width="13" height="18" rx="2" fill="#dcd8f0" stroke="#4a3aa7" stroke-width="1"/>
<rect x="900" y="246" width="13" height="18" rx="2" fill="#dcd8f0" stroke="#4a3aa7" stroke-width="1"/>
<rect x="915" y="246" width="13" height="18" rx="2" fill="#dcd8f0" stroke="#4a3aa7" stroke-width="1"/>
<text x="24" y="289" font-family="sans-serif" font-size="12" fill="#1f2328" text-anchor="start" font-weight="bold">Stripe 3</text>
<text x="24" y="302" font-family="sans-serif" font-size="11" fill="#52514e" text-anchor="start">5 data + 3 parity</text>
<rect x="210" y="280" width="13" height="18" rx="2" fill="#cde2fb" stroke="#2a78d6" stroke-width="1"/>
<rect x="225" y="280" width="13" height="18" rx="2" fill="#cde2fb" stroke="#2a78d6" stroke-width="1"/>
<rect x="240" y="280" width="13" height="18" rx="2" fill="#cde2fb" stroke="#2a78d6" stroke-width="1"/>
<rect x="255" y="280" width="13" height="18" rx="2" fill="#cde2fb" stroke="#2a78d6" stroke-width="1"/>
<rect x="270" y="280" width="13" height="18" rx="2" fill="#cde2fb" stroke="#2a78d6" stroke-width="1"/>
<rect x="285" y="280" width="13" height="18" rx="2" fill="#dcd8f0" stroke="#4a3aa7" stroke-width="1"/>
<rect x="300" y="280" width="13" height="18" rx="2" fill="#dcd8f0" stroke="#4a3aa7" stroke-width="1"/>
<rect x="315" y="280" width="13" height="18" rx="2" fill="#dcd8f0" stroke="#4a3aa7" stroke-width="1"/>
<text x="342" y="293" font-family="sans-serif" font-size="11" fill="#52514e" text-anchor="start">any 5 of these 8 groups rebuild the stripe</text>
<rect x="238.5" y="278.5" width="16" height="21" rx="2" fill="none" stroke="#1f2328" stroke-width="2"/>
<polygon points="240,300 253,300 909,358 48,358" fill="#ecebe8" fill-opacity="0.7"/>
<text x="480" y="340" font-family="sans-serif" font-size="12" fill="#1f2328" text-anchor="middle" font-weight="bold">Chunk 2 of stripe 3, sequence 98, as a group: inner code RS(16, 16), 32 slots of 65,536 bytes</text>
<rect x="48" y="362" width="24" height="24" rx="2" fill="#cde2fb" stroke="#2a78d6" stroke-width="1"/>
<text x="60" y="378" font-family="sans-serif" font-size="10" fill="#1f2328" text-anchor="middle">0</text>
<rect x="75" y="362" width="24" height="24" rx="2" fill="#cde2fb" stroke="#2a78d6" stroke-width="1"/>
<text x="87" y="378" font-family="sans-serif" font-size="10" fill="#1f2328" text-anchor="middle">1</text>
<rect x="102" y="362" width="24" height="24" rx="2" fill="#cde2fb" stroke="#2a78d6" stroke-width="1"/>
<text x="114" y="378" font-family="sans-serif" font-size="10" fill="#1f2328" text-anchor="middle">2</text>
<rect x="129" y="362" width="24" height="24" rx="2" fill="#cde2fb" stroke="#2a78d6" stroke-width="1"/>
<text x="141" y="378" font-family="sans-serif" font-size="10" fill="#1f2328" text-anchor="middle">3</text>
<rect x="156" y="362" width="24" height="24" rx="2" fill="#cde2fb" stroke="#2a78d6" stroke-width="1"/>
<text x="168" y="378" font-family="sans-serif" font-size="10" fill="#1f2328" text-anchor="middle">4</text>
<rect x="183" y="362" width="24" height="24" rx="2" fill="#cde2fb" stroke="#2a78d6" stroke-width="1"/>
<text x="195" y="378" font-family="sans-serif" font-size="10" fill="#1f2328" text-anchor="middle">5</text>
<rect x="210" y="362" width="24" height="24" rx="2" fill="#cde2fb" stroke="#2a78d6" stroke-width="1"/>
<text x="222" y="378" font-family="sans-serif" font-size="10" fill="#1f2328" text-anchor="middle">6</text>
<rect x="237" y="362" width="24" height="24" rx="2" fill="#cde2fb" stroke="#2a78d6" stroke-width="1"/>
<text x="249" y="378" font-family="sans-serif" font-size="10" fill="#1f2328" text-anchor="middle">7</text>
<rect x="264" y="362" width="24" height="24" rx="2" fill="#cde2fb" stroke="#2a78d6" stroke-width="1"/>
<text x="276" y="378" font-family="sans-serif" font-size="10" fill="#1f2328" text-anchor="middle">8</text>
<rect x="291" y="362" width="24" height="24" rx="2" fill="#cde2fb" stroke="#2a78d6" stroke-width="1"/>
<text x="303" y="378" font-family="sans-serif" font-size="10" fill="#1f2328" text-anchor="middle">9</text>
<rect x="318" y="362" width="24" height="24" rx="2" fill="#cde2fb" stroke="#2a78d6" stroke-width="1"/>
<text x="330" y="378" font-family="sans-serif" font-size="10" fill="#1f2328" text-anchor="middle">10</text>
<rect x="345" y="362" width="24" height="24" rx="2" fill="#cde2fb" stroke="#2a78d6" stroke-width="1"/>
<text x="357" y="378" font-family="sans-serif" font-size="10" fill="#1f2328" text-anchor="middle">11</text>
<rect x="372" y="362" width="24" height="24" rx="2" fill="#cde2fb" stroke="#2a78d6" stroke-width="1"/>
<text x="384" y="378" font-family="sans-serif" font-size="10" fill="#1f2328" text-anchor="middle">12</text>
<rect x="399" y="362" width="24" height="24" rx="2" fill="#cde2fb" stroke="#2a78d6" stroke-width="1"/>
<text x="411" y="378" font-family="sans-serif" font-size="10" fill="#1f2328" text-anchor="middle">13</text>
<rect x="426" y="362" width="24" height="24" rx="2" fill="#cde2fb" stroke="#2a78d6" stroke-width="1"/>
<text x="438" y="378" font-family="sans-serif" font-size="10" fill="#1f2328" text-anchor="middle">14</text>
<rect x="453" y="362" width="24" height="24" rx="2" fill="#cde2fb" stroke="#2a78d6" stroke-width="1"/>
<text x="465" y="378" font-family="sans-serif" font-size="10" fill="#1f2328" text-anchor="middle">15</text>
<rect x="480" y="362" width="24" height="24" rx="2" fill="#fbd9c9" stroke="#c4521f" stroke-width="1"/>
<text x="492" y="378" font-family="sans-serif" font-size="10" fill="#1f2328" text-anchor="middle">16</text>
<rect x="507" y="362" width="24" height="24" rx="2" fill="#fbd9c9" stroke="#c4521f" stroke-width="1"/>
<text x="519" y="378" font-family="sans-serif" font-size="10" fill="#1f2328" text-anchor="middle">17</text>
<rect x="534" y="362" width="24" height="24" rx="2" fill="#fbd9c9" stroke="#c4521f" stroke-width="1"/>
<text x="546" y="378" font-family="sans-serif" font-size="10" fill="#1f2328" text-anchor="middle">18</text>
<rect x="561" y="362" width="24" height="24" rx="2" fill="#fbd9c9" stroke="#c4521f" stroke-width="1"/>
<text x="573" y="378" font-family="sans-serif" font-size="10" fill="#1f2328" text-anchor="middle">19</text>
<rect x="588" y="362" width="24" height="24" rx="2" fill="#fbd9c9" stroke="#c4521f" stroke-width="1"/>
<text x="600" y="378" font-family="sans-serif" font-size="10" fill="#1f2328" text-anchor="middle">20</text>
<rect x="615" y="362" width="24" height="24" rx="2" fill="#fbd9c9" stroke="#c4521f" stroke-width="1"/>
<text x="627" y="378" font-family="sans-serif" font-size="10" fill="#1f2328" text-anchor="middle">21</text>
<rect x="642" y="362" width="24" height="24" rx="2" fill="#fbd9c9" stroke="#c4521f" stroke-width="1"/>
<text x="654" y="378" font-family="sans-serif" font-size="10" fill="#1f2328" text-anchor="middle">22</text>
<rect x="669" y="362" width="24" height="24" rx="2" fill="#fbd9c9" stroke="#c4521f" stroke-width="1"/>
<text x="681" y="378" font-family="sans-serif" font-size="10" fill="#1f2328" text-anchor="middle">23</text>
<rect x="696" y="362" width="24" height="24" rx="2" fill="#fdf1ea" stroke="#c4521f" stroke-width="1" stroke-dasharray="3 2"/>
<text x="708" y="378" font-family="sans-serif" font-size="10" fill="#1f2328" text-anchor="middle">24</text>
<rect x="723" y="362" width="24" height="24" rx="2" fill="#fdf1ea" stroke="#c4521f" stroke-width="1" stroke-dasharray="3 2"/>
<text x="735" y="378" font-family="sans-serif" font-size="10" fill="#1f2328" text-anchor="middle">25</text>
<rect x="750" y="362" width="24" height="24" rx="2" fill="#fdf1ea" stroke="#c4521f" stroke-width="1" stroke-dasharray="3 2"/>
<text x="762" y="378" font-family="sans-serif" font-size="10" fill="#1f2328" text-anchor="middle">26</text>
<rect x="777" y="362" width="24" height="24" rx="2" fill="#fdf1ea" stroke="#c4521f" stroke-width="1" stroke-dasharray="3 2"/>
<text x="789" y="378" font-family="sans-serif" font-size="10" fill="#1f2328" text-anchor="middle">27</text>
<rect x="804" y="362" width="24" height="24" rx="2" fill="#fdf1ea" stroke="#c4521f" stroke-width="1" stroke-dasharray="3 2"/>
<text x="816" y="378" font-family="sans-serif" font-size="10" fill="#1f2328" text-anchor="middle">28</text>
<rect x="831" y="362" width="24" height="24" rx="2" fill="#fdf1ea" stroke="#c4521f" stroke-width="1" stroke-dasharray="3 2"/>
<text x="843" y="378" font-family="sans-serif" font-size="10" fill="#1f2328" text-anchor="middle">29</text>
<rect x="858" y="362" width="24" height="24" rx="2" fill="#fdf1ea" stroke="#c4521f" stroke-width="1" stroke-dasharray="3 2"/>
<text x="870" y="378" font-family="sans-serif" font-size="10" fill="#1f2328" text-anchor="middle">30</text>
<rect x="885" y="362" width="24" height="24" rx="2" fill="#fdf1ea" stroke="#c4521f" stroke-width="1" stroke-dasharray="3 2"/>
<text x="897" y="378" font-family="sans-serif" font-size="10" fill="#1f2328" text-anchor="middle">31</text>
<line x1="48" y1="394" x2="48" y2="389" stroke="#7a7974" stroke-width="1"/>
<line x1="477" y1="394" x2="477" y2="389" stroke="#7a7974" stroke-width="1"/>
<line x1="48" y1="394" x2="477" y2="394" stroke="#7a7974" stroke-width="1"/>
<text x="262.5" y="408" font-family="sans-serif" font-size="11" fill="#52514e" text-anchor="middle">16 data fragments: 64 KiB slices of the chunk</text>
<line x1="480" y1="394" x2="480" y2="389" stroke="#7a7974" stroke-width="1"/>
<line x1="693" y1="394" x2="693" y2="389" stroke="#7a7974" stroke-width="1"/>
<line x1="480" y1="394" x2="693" y2="394" stroke="#7a7974" stroke-width="1"/>
<text x="586.5" y="408" font-family="sans-serif" font-size="11" fill="#52514e" text-anchor="middle">8 guaranteed parity</text>
<line x1="696" y1="394" x2="696" y2="389" stroke="#7a7974" stroke-width="1"/>
<line x1="909" y1="394" x2="909" y2="389" stroke="#7a7974" stroke-width="1"/>
<line x1="696" y1="394" x2="909" y2="394" stroke="#7a7974" stroke-width="1"/>
<text x="802.5" y="408" font-family="sans-serif" font-size="11" fill="#52514e" text-anchor="middle">8 extra parity</text>
<text x="480" y="432" font-family="sans-serif" font-size="11" fill="#52514e" text-anchor="middle">Any 16 of the 32 slots rebuild the chunk. The 24 guaranteed fragments go to 24 different gridnodes, the extras to spare ranks.</text>
<text x="24" y="471" font-family="sans-serif" font-size="12" fill="#1f2328" text-anchor="start" font-weight="bold">Manifest</text>
<text x="24" y="484" font-family="sans-serif" font-size="11" fill="#52514e" text-anchor="start">3 copies</text>
<rect x="210" y="462" width="13" height="18" rx="2" fill="#ecebe8" stroke="#7a7974" stroke-width="1"/>
<rect x="225" y="462" width="13" height="18" rx="2" fill="#ecebe8" stroke="#7a7974" stroke-width="1"/>
<rect x="240" y="462" width="13" height="18" rx="2" fill="#ecebe8" stroke="#7a7974" stroke-width="1"/>
<text x="267" y="475" font-family="sans-serif" font-size="11" fill="#52514e" text-anchor="start">each copy is its own group: replicated, not outer coded</text>
<rect x="24" y="502" width="14" height="12" rx="2" fill="#cde2fb" stroke="#2a78d6" stroke-width="1"/>
<text x="44" y="512" font-family="sans-serif" font-size="11" fill="#52514e" text-anchor="start">data chunk or data fragment</text>
<rect x="238.32" y="502" width="14" height="12" rx="2" fill="#dcd8f0" stroke="#4a3aa7" stroke-width="1"/>
<text x="258.32" y="512" font-family="sans-serif" font-size="11" fill="#52514e" text-anchor="start">outer parity chunk</text>
<rect x="397.2" y="502" width="14" height="12" rx="2" fill="#fbd9c9" stroke="#c4521f" stroke-width="1"/>
<text x="417.2" y="512" font-family="sans-serif" font-size="11" fill="#52514e" text-anchor="start">guaranteed inner parity</text>
<rect x="586.88" y="502" width="14" height="12" rx="2" fill="#fdf1ea" stroke="#c4521f" stroke-width="1" stroke-dasharray="3 2"/>
<text x="606.88" y="512" font-family="sans-serif" font-size="11" fill="#52514e" text-anchor="start">extra inner parity</text>
<rect x="745.76" y="502" width="14" height="12" rx="2" fill="#ecebe8" stroke="#7a7974" stroke-width="1"/>
<text x="765.76" y="512" font-family="sans-serif" font-size="11" fill="#52514e" text-anchor="start">manifest copy</text>
</svg>
